<svg xmlns="http://www.w3.org/2000/svg" viewBox="0 0 57.654 57.732" height="76.976" width="76.872">
   <path
      d="M35.275 26.14s7.15-5.836 7.07-13.83C42.299 7.633 38.068-.094 28.464 0 18.86.097 14.783 7.909 14.829 12.585c.08 7.993 7.343 13.687 7.343 13.687C14.106 20.115-.123 24.513 0 36.976c.062 6.238 5.228 13.052 13.232 12.972 9.604-.095 13.654-10.62 13.654-10.62s1.339 11.937-5.713 18.404l15.724-.156c-7.18-6.323-6.078-18.287-6.078-18.287s4.258 10.443 13.862 10.347c8.008-.08 13.034-6.997 12.972-13.232-.123-12.463-14.436-16.578-22.38-10.263z" />
</svg>
